<svg xmlns="http://www.w3.org/2000/svg" viewBox="0 0 200 200">
	<g transform="translate(51.307 51.294) scale(0.381)" fill="#0EA5E9"><path d="M128,24A104,104,0,0,0,36.18,176.88L24.83,210.93a16,16,0,0,0,20.24,20.24l34.05-11.35A104,104,0,1,0,128,24Zm0,192a87.87,87.87,0,0,1-44.06-11.81,8,8,0,0,0-6.54-.67L40,216,52.47,178.6a8,8,0,0,0-.66-6.54A88,88,0,1,1,128,216Zm-40-92a12,12,0,1,1,12,12A12,12,0,0,1,88,124Zm88,0a12,12,0,1,1-12-12A12,12,0,0,1,176,124Zm-44,0a12,12,0,1,1-12-12A12,12,0,0,1,132,124Z"/></g>
</svg>
